<svg xmlns="http://www.w3.org/2000/svg" xmlns:xlink="http://www.w3.org/1999/xlink" version="1.1" x="0px" y="0px" viewBox="0 0 100 100" fill="#01baf4" enable-background="new 0 0 100 100" xml:space="preserve"><path d="M81.302,56.69C78.479,38.636,60.647,26.027,50.954,5.587c-0.373-0.787-1.496-0.78-1.862,0.01  c-8.99,19.376-27.534,32.871-30.404,51.295C15.735,76.805,29.354,94.78,50.011,95C68.271,95.019,84.535,79.214,81.302,56.69z   M25.347,58.79c0.017-0.137,0.034-0.274,0.052-0.411c0.486-3.575,1.86-7.175,3.754-10.75c0.573-1.08,2.22-0.441,1.907,0.742  c-0.317,1.194-0.561,2.388-0.723,3.579c-0.315,2.354-0.39,4.685-0.24,6.959c0.09,1.378-0.999,2.546-2.38,2.546  C26.288,61.454,25.177,60.207,25.347,58.79z M50.112,88.137c-0.023,0-0.046,0-0.068,0.001c-12.116-0.135-20.875-7.863-23.823-18.084  c-0.564-1.956,0.893-3.908,2.928-3.908h0.029c1.282,0,2.421,0.804,2.863,2.008c3.084,8.382,9.551,15.09,18.366,17.974  C51.514,86.49,51.275,88.12,50.112,88.137z"/></svg>
